<svg width="24" height="24" viewBox="0 0 24 24" fill="none" xmlns="http://www.w3.org/2000/svg">
<path d="M17.8126 10.2375C17.8126 10.2375 16.1251 8.85002 15.2251 7.50002C14.8876 7.01252 13.8001 7.08752 13.4251 8.02502L7.57512 10.275L3.71262 8.21252C3.11262 7.83752 2.32512 8.10002 1.98762 8.81252C1.65012 9.48752 1.83762 10.35 2.47512 10.725L3.07512 11.0625C2.55012 10.9875 1.98762 11.25 1.72512 11.775C1.38762 12.45 1.57512 13.3125 2.21262 13.6875L3.56262 14.475C2.96262 14.1 2.17512 14.3625 1.83762 15.075C1.50012 15.75 1.68762 16.6125 2.32512 16.9875C2.32512 16.9875 9.11262 21.1875 11.4376 22.425C13.2751 23.4375 16.9126 23.925 19.2001 21.15C19.9501 20.175 17.8126 10.2375 17.8126 10.2375Z" fill="#D99B57"/>
<path d="M20.6251 10.2375C19.4251 9.41254 18.6001 8.32504 18.0001 6.67504C17.7751 6.11254 16.9501 6.00004 16.4626 6.93754C15.7501 8.28754 16.4251 9.37504 16.8001 9.86254L16.9876 10.0875C16.9876 10.0875 17.1001 10.5 17.2876 10.9875C16.2751 10.7625 15.1501 11.325 14.3626 12.375C13.5376 13.4625 11.5876 15.3375 10.7626 16.425C9.75008 17.7375 10.0126 19.6125 11.1376 20.4375C11.1376 20.4375 17.0251 24.75 20.9251 19.4625C24.0001 15.3375 21.8251 11.0625 20.6251 10.2375Z" fill="#FFDD67"/>
<path d="M18.6375 11.8125C19.2375 12.2625 19.3875 13.125 18.9375 13.8C18.525 14.475 17.6625 14.6625 17.0625 14.2125L7.72498 7.50001C7.12498 7.05001 6.97498 6.18751 7.42498 5.51251C7.83748 4.83751 8.69998 4.65001 9.29998 5.10001L18.6375 11.8125Z" fill="#FFDD67"/>
<path d="M13.8 11.0625L7.8375 6.75002C7.5 6.52502 7.275 6.15002 7.3875 5.58752C6.975 6.33752 7.2375 7.08752 7.725 7.46252L13.6875 11.775C14.2875 12.225 14.4 11.5125 13.8 11.0625Z" fill="#EBA352"/>
<path d="M15.5999 13.125C16.1999 13.575 16.3499 14.4375 15.8999 15.1125C15.4874 15.7875 14.6249 15.975 14.0249 15.525L4.68738 8.77498C4.08738 8.32498 3.93738 7.46248 4.38738 6.78748C4.79988 6.11248 5.66238 5.92498 6.26238 6.37498L15.5999 13.125Z" fill="#FFDD67"/>
<path d="M12.0001 13.275L4.80012 8.06252C4.46262 7.83752 4.23762 7.38752 4.35012 6.90002C3.93762 7.65002 4.16262 8.47502 4.68762 8.85002L11.9251 13.9875C12.4876 14.4375 12.6001 13.6875 12.0001 13.275Z" fill="#EBA352"/>
<path d="M15 16.125C15.6 16.575 15.75 17.4375 15.3 18.1125C14.8875 18.7875 14.025 18.975 13.425 18.525L4.08753 11.775C3.48753 11.325 3.33753 10.4625 3.78753 9.78748C4.20003 9.11248 5.06253 8.92498 5.66253 9.37498L15 16.125Z" fill="#FFDD67"/>
<path d="M10.575 15.675L4.19999 11.1C3.86249 10.875 3.63749 10.35 3.78749 9.82501C3.29999 10.5375 3.48749 11.475 4.01249 11.85L10.4625 16.3875C11.0625 16.8375 11.175 16.125 10.575 15.675Z" fill="#EBA352"/>
<path d="M14.7374 19.5C15.3374 19.95 11.0624 20.4 10.4624 19.95L3.86243 15.1875C3.26243 14.7375 3.11243 13.875 3.56243 13.2C3.97493 12.525 4.83743 12.3375 5.43743 12.7875L14.7374 19.5Z" fill="#FFDD67"/>
<path d="M22.4626 15.6C22.4626 15.6 21.8251 18.9 19.2001 20.8875C16.8751 22.65 13.2751 21.1125 11.5501 19.9875C9.75005 18.75 8.85005 18.15 4.50005 14.85C3.67505 14.2125 3.45005 13.8 3.56255 13.125C2.92505 13.8 3.26255 14.85 3.78755 15.225L4.23755 15.525C4.23755 15.525 9.45005 19.35 11.2126 20.55C12.8251 21.675 16.9876 23.4375 19.6126 21.3375C22.5751 19.05 22.4626 15.6 22.4626 15.6Z" fill="#EBA352"/>
<path d="M18.0001 11.2875C17.2501 10.5 17.2126 9.37499 17.2126 9.37499L17.0251 9.14999C16.7251 8.77499 16.2376 7.98749 16.4251 7.04999C15.7126 8.36249 16.4251 9.41249 16.7626 9.86249L16.9501 10.0875C16.9501 10.0875 16.9126 10.425 17.1001 10.6875L18.0001 11.2875Z" fill="#EBA352"/>
<path d="M14.175 0.75L15.3 5.325L17.5125 1.0875L14.175 0.75Z" fill="#FA743E"/>
<path d="M19.7251 2.09998L18.0376 5.88748L21.9751 4.87498L19.7251 2.09998Z" fill="#FA743E"/>
<path d="M11.325 1.3125L12.375 5.4375L8.92505 3.225L11.325 1.3125Z" fill="#FA743E"/>
</svg>
